<svg xmlns="http://www.w3.org/2000/svg" xmlns:xlink="http://www.w3.org/1999/xlink" viewBox="0 0 350.36 281.77"><defs><clipPath id="a" transform="translate(-1.37 1.9)"><ellipse cx="183.04" cy="173.54" rx="223.76" ry="183.54" fill="none"/></clipPath></defs><title>logo_flyer</title><g clip-path="url(#a)"><path d="M209.57,224.69a.82.82,0,0,0,0,.2Z" transform="translate(-1.37 1.9)" fill="none" stroke="#f4817f" stroke-miterlimit="10" stroke-width="0.25"/><path d="M186.5,230l-.21.31Z" transform="translate(-1.37 1.9)" fill="none" stroke="#f4817f" stroke-miterlimit="10" stroke-width="0.25"/><path d="M348.15,188.09a157.77,157.77,0,0,0-27.8-43.76c-10.6-12.12-25.66-22.81-43.84-26.14q1.08,9.19,2.17,18.39l.87,7.54c.31,2.75-.28,5.49.36,8.21,1.74,7.52,7.84,13.88,16.35,17a39.61,39.61,0,0,0,4.6,1.34c1,.23,3.06.23,3.75.88a53.77,53.77,0,0,1,3.7,4c2.94,3.42,5.86,6.87,8.78,10.31,5,5.84,10.13,11.56,15.41,17.23-8.17,2.75-16.14,5.87-22.47,11.07-4,3.26-7.21,7.13-11.23,10.32-2.57,2.08-6,4.86-9.63,5.6a328.52,328.52,0,0,0-27-34.54c-6.19-6.73-12.06-13.4-17.5-20.54q-5.42-7.13-10.91-14.25c-5.49-7.13,3.91-3.34,7.65-6.29-.14-.54-.26-.94-.26-.94l4.88-35.29c-3.18,1.23-6.36,2.47-9.5,3.75a26.18,26.18,0,0,1-6.76,2.39c-5.21.57-11.87.93-15.52,4.45-3.25,3.14-3.74,6.09-4.26,10a61.36,61.36,0,0,1-3.08,11,18.87,18.87,0,0,1-5.21,8.17c-2.07,2-5,4.63-5.86,7.21-3-.51-19.36-4.62-19.67-.11,0,1.08,1.44,3.18.68,4.06-.54.64-2.47,1.51-2.47,2.37s1.53,2.08.4,3.08c-.71.61-1.55,1.43-.14,1.9l.38.74c.4,1-1,2.14-1.58,2.85-1.37,1.84,2.8,3.36,4,4.48,1.89,1.74,1.63,4.08,1.74,6.21a23.65,23.65,0,0,0,2.28,7.13c1,2.37,2.66,4.36,3.72,6.66,1.29,2.77-.3,5.7-1,8.55a20.15,20.15,0,0,0-1.23,6.27,25.09,25.09,0,0,0,1.27,5.15,21,21,0,0,1,.28-8.22,24.87,24.87,0,0,1,4.34-7.48,33.88,33.88,0,0,0-1,11c0,3.32.4,7.13-1.46,10.11a33.5,33.5,0,0,0,2.12-3.76c.42-.91.45-2,1.53-2.58.45,2.85,1.15,6.39-1.42,8.75,1.74-.16,2.12-2.38,2.33-3.42.89-4.28.16-7.85,3.58-11.64-1.08,2.85-6.39,18.53,1.93,16.55-4-1.43-3.86-5-1.55-7.7.24,1.91,1.25,6.64,4.48,6.64a7,7,0,0,1-2.22-6.83c.75-3.05,1.36-4.09,4.41-5.93-1.3,3.18-3.67,8.64.76,11a11,11,0,0,1,1.27-10.75,61.39,61.39,0,0,0,4.1-6.21c.75-1.61,1.41-3.25,2.09-4.87q-1.11,2.85-2.17,5.82c-.94,2.57-2.61,6-1,8.55.92-5.94,5.21-9.21,10.29-13.18,0,0-9.28,8.85-7.51,14.25-1-5.07,4.43-8.94,7.58-12.64a24.73,24.73,0,0,0,6.5-14.61,29,29,0,0,0-4.21-15.38,48.07,48.07,0,0,0-6.27-7.35c-.8-.83-2.47-2-2.75-3.06a4.16,4.16,0,0,1,2.66-4c3.28-1.1,5.61-1.25,8,1,3.48,3.32,7,6.66,10.56,9.86a163.28,163.28,0,0,1,22,23A241.59,241.59,0,0,0,273,223c2.07,2.1,4.1,4.28,5.93,6.49a3.75,3.75,0,0,1,1.11,2c0,1.3-3-.43-3.48-.58a6.74,6.74,0,0,0-7.92,1.91c-1.2,1.81-2,5.32-4.26,6.46-5.65,2.85-13.9,2.85-18.18,7.44-3.68,3.93,10.56,1.43,12.37,1.21,5.63-.88,11.42-2.19,17.17-2.12,4.4,0,12.08-.3,13.54-4.68.31-1,0-.93,1-1.43l3-1.34,10.43-4.66c6-2.68,12-5.32,17.86-8.07a214.65,214.65,0,0,0,22.4-11.4c3.7-2.29,7.82-5.39,7.82-9.51A44,44,0,0,0,348,188C345.7,182.19,350.58,194,348.15,188.09Z" transform="translate(-1.37 1.9)" fill="#010101"/><path d="M276.57,118.19,262.48-1.9,246.06,118.22l-4.81,35.33s.12.4.26.94a56.91,56.91,0,0,1,5.72-4.15,123.81,123.81,0,0,1,13.9-6.86,39.72,39.72,0,0,1,10.55-1.9c1.93,0,7.45,1.05,8,2.64Z" transform="translate(-1.37 1.9)" fill="#ee2f24"/><path d="M251.32,1.48s-41.09,37.2-75.14,37.2c-33.8,0-60.47-29.11-68.12-38.4h-.7c7,12.47,37.62,62.19,78.3,62.19S262.59.28,262.59.28Z" transform="translate(-1.37 1.9)" fill="#ee2f24"/><path d="M1.89,279.87,107.36,1.5,102.9.28S39.44,123.28,1.38,168.16C1.28,266.51,1.89,279.87,1.89,279.87Z" transform="translate(-1.37 1.9)" fill="#ee2f24"/></g></svg>
