<svg id="ffab0fb8-9b72-4c87-bc54-08c2e6681545" data-name="Livello 1" xmlns="http://www.w3.org/2000/svg" viewBox="0 0 414.98 226.89"><title>logo_title</title><path d="M45,17.45c0,2.45,0,6-1.41,6-2.67,0-1.37-4.74-2.67-6a17.17,17.17,0,0,0-10.75,0c-1.41,1.21-2.71,4.81-4.08,6a3.54,3.54,0,0,1-1.3,2.39,44.69,44.69,0,0,0-1.53,14.42V47.3c1.41,7.16,4.08,15.43,9.46,17.88a9.9,9.9,0,0,0,8.12-1.24c1.3-2.35,0-6,1.3-8.34,2.78,0,2.78,1.24,4.08,1.24v8.34c-2.71,5.88-14.83,3.36-21.5,2.29a36.22,36.22,0,0,1-8.08-7.13,89.47,89.47,0,0,1-4.08-20.17,124.15,124.15,0,0,1,4.08-17.82c1.3-1.21,1-2.29,2.59-3.6A19.53,19.53,0,0,1,34,11.67c4.08,1.14,6.79,1.14,9.46,3.6C43.49,16.31,45,16.31,45,17.45Z" transform="translate(-12.48 -11.36)" fill="#231f20"/><path d="M75.17,16.31c-1.3-.64-1.3-.64-2.67-1.21a24.32,24.32,0,0,0-9.19,1.21c-1.37,1.08-1.18,2.86-1.18,5.48,0,3.36-.19,5-.19,7.26,0,3.53,1.37,5.88,0,8.24a17.1,17.1,0,0,0,7.89,1.08c0-1.08,0-3.36,1.37-3.36s1.3,0,2.67,1.14c-1.37,2.29,1.3,9.38-1.37,9.38,0,0-2.67-1.21-2.67-2.35V42H63.32a34.66,34.66,0,0,0-.38,11.83c0,3.53.38,8.07.38,10.35a33.12,33.12,0,0,0,10.56,1.14c2.67-1.14,0-4.64,2.67-5.78,2.67,0,2.67,3.36,2.67,5.78,0,1.21-1.37,2.35-2.67,3.53H69.87a132.89,132.89,0,0,1-21.12-1.21V65.25h5.3c1.37-7,0-12.67,0-19.77V16.34H48.79V14c5.3-1.21,10.56-1.21,15.86-2.35H77.88A3.83,3.83,0,0,1,79.25,14c0,2.35,2.67,7-2.67,7C75.17,19.74,76.55,17.42,75.17,16.31Z" transform="translate(-12.48 -11.36)" fill="#231f20"/><path d="M120.2,14.73h-2.78c-1.3,1.14,0,2.29,0,4.64,0,14.86-.27,30.86,1,46.86,0,3.53-4.65,2.79-5.95,1.65-2.52-6.72-7-17.88-9.38-25.55a49.42,49.42,0,0,0-3.05-6.72c-.53-1-.84-1.82-.84-1.82-1.22-2.35-.38-5-3-6.19V63.1a5.09,5.09,0,0,0,3.81,1.14c0,2.35,1.11,4.57-1.41,4.57H95.72L87,69c-1.3,0-.72-2.12-.72-4.47,0,0,2.14.81,2.14-.34a17.59,17.59,0,0,0,.46-8c0-3.36-.46-8-.46-10.29V37.82c0-2.59-.53-4.4-.53-6.72,0-1.14-.72-2.39-.72-3.53V20c0-1.61-1.18-2.79-1.18-3.93-2.67,0-3.81-1.14-3.81-2.29a2.18,2.18,0,0,1,2.25-2.12h0a15.35,15.35,0,0,0,3-.24c1.3,0,2.4.24,4.19.24s2.25,2.12,2.25,2.12c5.19,6.72,7.85,14.93,11.67,22.93a44.5,44.5,0,0,0,3.81,8,7.75,7.75,0,0,0,1.11,3.53,38.59,38.59,0,0,0,3.05,7.09c.65.81-.31-6-.31-8.27,0-5.71.53-12.81.53-19.67V26.26c0-3.36-1.3-5.78-1.3-9.21-1.3-1.14-2.67-2.29-3.81-2.29-1.3-1.14-2.59-1.14-1.3-3.36,1.3,0,.46.34,2.33.34a9.62,9.62,0,0,0,2.9-.34c2.86.67,7.63-1.14,9.07,1.21A4,4,0,0,1,120.2,14.73Z" transform="translate(-12.48 -11.36)" fill="#231f20"/><path d="M155.54,16.44c-1.37-1.21-5.38,0-8,0-1.37,2.45,0,6,0,8.4V59.37a16.48,16.48,0,0,0,0,6c.53,1.08,4,0,4,2.35a5,5,0,0,1-2.71,1.21h-12.2c-1.37,0-1.37-1.21-1.37-2.39,1.37,0,2.67-1.14,4-1.14V51c-.19-4.91,0-9.38,0-14.22V28.44a32.81,32.81,0,0,0-1.37-11.93c-5.38-1.21-12,0-10.75,6a2,2,0,0,1-2.53.12l-.14-.12c0-2.35-1.37-6,0-8.4a20.4,20.4,0,0,1,9.19-2.05c4,0,9.53-.27,13.8-.27s10.75,0,12,2.35c1.37,3.53,1.37,8.4-2.67,8.4C155.54,21.28,157,18.9,155.54,16.44Z" transform="translate(-12.48 -11.36)" fill="#231f20"/><path d="M195.92,64.78c1.41,0,2.71,0,2.71,1.21,0,3.66-5.72,2.79-9.65,2.39-2.86-2.39,1.11-4.3-.31-11.73-.84-4.64.53-9.82-2.71-14a18,18,0,0,0-2.71-3.36c0-1.24-1.41-1.24-2.78-2.39-1.41,0-2.71,0-2.71,1.14-1.41,6.19,0,13.45,0,18.39a15,15,0,0,0,1.3,7.43c0,1.21,2.78,1.21,2.78,2.35s.19,2.19-1.18,2.19c-2.71,0-8.62-.91-11.44.34-2.86,0-4.16,0-5.57-2.52a5.78,5.78,0,0,1,4.16-1.14V44.24c0-2.39,1.41-4.91,0-7.33,0-1.24.34-1.48.46-3.36.38-5.21-.46-9-.46-15.19-2.71,0-5.07-.5-5.07-1.78,0-3.6,1.83-3.66,6-3.66,1.37,0,1.83-.67,3.13-.67,8.43-1.24,20.36-1,22.3,6.12a14.91,14.91,0,0,1,0,9.78A18.78,18.78,0,0,1,190.12,33l-1.41,1.24c0,1.21,1.41,1.21,1.41,2.45C195.73,43.17,194.51,56.14,195.92,64.78ZM176.86,31.37c0,1.65,6.29-.47,7.63-1.71a40,40,0,0,1,1.3-4.84,15.61,15.61,0,0,0,0-4.91c0-1.71-1.3-2.52-2.71-3.73h-6.82c.15,5,.34,9.24.69,15.16Z" transform="translate(-12.48 -11.36)" fill="#231f20"/><path d="M228,66.77c-6.92,3.94-16.14,2.18-20.61-3.92q-.27-.37-.51-.76a51.64,51.64,0,0,1-4-8.24,50.59,50.59,0,0,1-1.3-14,28.06,28.06,0,0,1,0-7,26.35,26.35,0,0,0,.72-4.47c.65-2.45.57-4.91,1.94-6.05,3.81-4.64,6.6-11.67,15.94-10.45a11.11,11.11,0,0,1,10.48,4.67,18,18,0,0,1,7.63,13.65,47,47,0,0,1,.27,6.19,47.2,47.2,0,0,1-7,26.89A11.19,11.19,0,0,1,228,66.77Zm1.37-14a29.28,29.28,0,0,0,1.3-10.52c0-2.35.46-3.66.46-6s-.46-4.57-.46-6.93c-1.3-2.35-1.3-4.67-2.67-7s-2.48-5.61-5.11-6.72c-2.52,0-2.71-.24-5.38-.24a18.08,18.08,0,0,0-5.3,8.1,13,13,0,0,0-1.37,7,79.21,79.21,0,0,0,1.37,25.65c1.3,2.35,1.3,4.67,2.67,5.88,1.3,0,.57,1,1.49,1.82a8.36,8.36,0,0,0,9.53-1.41,74.05,74.05,0,0,0,3.55-9.68Z" transform="translate(-12.48 -11.36)" fill="#231f20"/><path d="M48.79,98.85H45a178.32,178.32,0,0,1-7.4,20.74c-2.4,2.19-1.37,4.34-1.37,8.67-.84,1.31,0,4.81,0,6.72,0,4.27-1.18,10.93,1.22,13.08,0,0,3.36,0,3.36,1,0,0,1.11,3-.19,3.36a41.12,41.12,0,0,1-10.56,0H23.82a2,2,0,0,1-.45-3,2.28,2.28,0,0,1,.45-.39c1.3-1.08,3.81,0,5-1.08,0-9.82,1.22-25.08-6.18-30.56a61.64,61.64,0,0,0-3.81-7.66,28.85,28.85,0,0,1-2.52-10.86c-1.3,0-3.81,0-3.81-1-.38-4.4,5.83-2.52,8.54-2.52s5.07.27,7.63.27a3.74,3.74,0,0,1,1.22,3.36c-1.22,0-3.55-.81-4.8.3a21.79,21.79,0,0,1,.53,4.34c.19,2.12.57,3,.57,4.1a25.28,25.28,0,0,0,6.14,10.93c2.52-1.14,2.78-3.93,4.46-7a27.55,27.55,0,0,0,3.05-11.53c0-1.61-3.81-1.08-5-3.36,0-2.19,7.4-1.08,11.09-1.08,1.3,0,2.52-1.14,3.81,0C50,96.83,50,98.85,48.79,98.85Z" transform="translate(-12.48 -11.36)" fill="#b20000"/><path d="M76.55,150.28c-6.92,3.94-16.14,2.18-20.61-3.92q-.27-.37-.51-.76a51.71,51.71,0,0,1-4-8.24,50.59,50.59,0,0,1-1.3-14,28.06,28.06,0,0,1,0-7,26.38,26.38,0,0,0,.72-4.47c.65-2.45.57-4.91,1.94-6.05,3.81-4.64,6.6-11.67,15.94-10.45a11.11,11.11,0,0,1,10.48,4.67,18,18,0,0,1,7.63,13.65,47.06,47.06,0,0,1,.27,6.19,47.2,47.2,0,0,1-7,26.89A11.19,11.19,0,0,1,76.55,150.28Zm1.37-14a29.34,29.34,0,0,0,1.3-10.52c0-2.35.46-3.66.46-6s-.46-4.57-.46-6.93c-1.3-2.35-1.3-4.67-2.67-7s-2.48-5.61-5.11-6.72c-2.52,0-2.71-.24-5.38-.24a18.08,18.08,0,0,0-5.3,8.1,13,13,0,0,0-1.37,7,79.21,79.21,0,0,0,1.37,25.65c1.3,2.35,1.3,4.67,2.67,5.88,1.3,0,.57,1,1.49,1.82A8.36,8.36,0,0,0,74.45,146a74.17,74.17,0,0,0,3.62-9.68Z" transform="translate(-12.48 -11.36)" fill="#b20000"/><path d="M116.2,99.22c-4,0-10.56,0-13.23,3.36a20.37,20.37,0,0,0-3.51,9.48c0,5.82-.46,11.43-.46,17.21a50.24,50.24,0,0,0,0,14c1.37,4.64,6.6,4.64,11.86,5.82,8.16-1,5.83-10.35,6.56-17.41a2,2,0,0,0-2.59,0h0c-1.3,2.35,0,5.82-2.67,7-1.3,0-1.3-1.14-2.59-2.29a17.66,17.66,0,0,1,1.3-8.1c3.81,0,7.89-1.21,10.56,1.08,1.3,1.21,0,2.35,0,3.53,0,5.78,1.3,11.6-1.37,15,0,1.21-2.67,2.35-3.81,3.53a19.46,19.46,0,0,1-11.86,0c-6.33-2.29-7.63-3.83-11.86-9.31a36.31,36.31,0,0,1-2.67-12.81v-6.93A38.59,38.59,0,0,1,91,114.38a24.37,24.37,0,0,1,1.37-4.67c1.49-3.13,1.49-6,4.08-8.27,1.37-1.21,1.37-2.29,2.67-3.36a4.8,4.8,0,0,0,2.67-1.14,18.14,18.14,0,0,1,7.89-1.21,12.91,12.91,0,0,1,6.6,0c1.22,0,3.81,1.21,3.81,2.35a10.32,10.32,0,0,1-1.3,9.31C116.2,106.11,117.23,101.5,116.2,99.22Z" transform="translate(-12.48 -11.36)" fill="#b20000"/><path d="M148.68,125.84c-2.59,0-6.75-1.21-10.75-1.21-1.41,1.21-1.41,3.6-1.41,6.19A59.26,59.26,0,0,0,135,147.63c1.49,1.08,2.9,0,4.16,1.08a16.19,16.19,0,0,1-.19,2.39c-4.16,2.52-8,0-12,1.24l-2.86-2.39a7.07,7.07,0,0,1,4.08-2.35c1.41,0,1.41-1.21,1.41-2.45,1.3-7.33,2.67-18.05,4-26.56a19.32,19.32,0,0,1,2.86-9.61,36.16,36.16,0,0,1,6.75-12.07s2.86-2.55,5.45-1.24a11.81,11.81,0,0,1,5.72,8.47,17.49,17.49,0,0,1,2.06,6.45c1.3,9.48,1.94,20.17,3.16,30.93v7.33c0,1.08,2.86,2.39,0,3.6L158,152.1c-2.71,0-5.07.34-7.85.34-1.41,0-3.81.64-3.81-.47s2.21-4.4,3.81-4.4A105.53,105.53,0,0,0,148.68,125.84Zm-9.53-10.79c0,1.08-1.22,4.74-1.22,6.12a41.29,41.29,0,0,0,10.75,1.08v-7.19a36.93,36.93,0,0,0-2.59-12.1,1.3,1.3,0,0,0-1.37-1.21h0l-1.41,1.21c-1.33,3.53-2.75,7.33-4.19,12.1Z" transform="translate(-12.48 -11.36)" fill="#b20000"/><path d="M208.39,110c-.46,11.83-1.37,24.64-1.37,37.58,1.37,1.21,2.71,1.21,3.81,2.29,0,1.21-1.22,1.21-2.59,2.39-2.71-1.21-8,0-12-1.21a1.42,1.42,0,0,1-.11-2.18l.11-.1c0-1.21,1.37,0,2.59-1.21s0-3.36,0-4.67c0-3.6.19-6.72.19-10.09a27.23,27.23,0,0,1-.19-2.76V99.52c-1.22,0-2.59,0-2.59-1.21V96c0-1.14,1.37,0,3.81,0s8-1.14,10.64,0c1.37,1.21,0,3.53-2.59,3.53C207,102.92,208.5,106.48,208.39,110Z" transform="translate(-12.48 -11.36)" fill="#b20000"/><path d="M252,98.24h-2.67c-1.3,1.14,0,2.29,0,4.64,0,14.86-.27,30.86,1,46.86,0,3.53-4.65,2.79-5.95,1.65-2.52-6.72-7-17.88-9.38-25.55a49.27,49.27,0,0,0-3.05-6.72c-.53-1-.84-1.82-.84-1.82-1.22-2.35-.38-5-3-6.19v35.5a5.09,5.09,0,0,0,3.81,1.14c0,2.35,1.11,4.57-1.41,4.57h-2.9l-8.69.17c-1.3,0-.72-2.12-.72-4.47,0,0,2.14.81,2.14-.34a17.59,17.59,0,0,0,.46-8c0-3.36-.46-8-.46-10.29v-8.07c0-2.59-.53-4.4-.53-6.72,0-1.14-.72-2.39-.72-3.53v-7.56c0-1.61-1.18-2.79-1.18-3.93-2.67,0-3.81-1.14-3.81-2.29a2.18,2.18,0,0,1,2.25-2.12h0a15.35,15.35,0,0,0,3-.24c1.3,0,2.4.24,4.19.24s2.29,2.12,2.29,2.12c5.19,6.72,7.85,14.93,11.67,22.93a44.37,44.37,0,0,0,3.81,8,7.75,7.75,0,0,0,1.11,3.53,38.61,38.61,0,0,0,3.05,7.09c.65.81-.34-6-.34-8.27,0-5.71.53-12.81.53-19.67v-1.14c0-3.36-1.3-5.78-1.3-9.21-1.3-1.14-2.67-2.29-3.81-2.29-1.3-1.14-2.59-1.14-1.3-3.36,1.3,0,.46.34,2.33.34a9.66,9.66,0,0,0,2.94-.34c2.86.67,7.63-1.14,9.07,1.21A4,4,0,0,1,252,98.24Z" transform="translate(-12.48 -11.36)" fill="#b20000"/><path d="M317.91,95.55c1.37,1.21,2.59,2.29,1.37,4.57h-2.59a36.57,36.57,0,0,0-2.33,7.83c-4.65,15.26-6.6,29.08-11.44,42.56-2.59,3.36-3.81-1.14-5.11-4.5a11.05,11.05,0,0,1-1.22-5.61c-1.37-4.47-2.59-9-3.81-13.45a117.68,117.68,0,0,1-4.73-20.17,51.25,51.25,0,0,1-1-6.35c0-1.08-1.68-.67-3.05-.67,0-1.08-.31-2.22-.31-3.36s2.33-.67,3.55-.67c2.52,0,6.56,0,9.38-.17,3.81-.24,2.52,5.61-1.37,5.61a80.07,80.07,0,0,0,2.59,15.67,83.48,83.48,0,0,0,5.11,19.09c.19-1.71,2.48-7,2.48-9a184,184,0,0,0,6.37-24.64c0-1.14,1.37-1.14,0-2.22S308,98.88,308,96.73a1.27,1.27,0,0,0,1.37-1.14s0,0,0-.07C311.58,96.9,315.39,95.55,317.91,95.55Z" transform="translate(-12.48 -11.36)" fill="#b20000"/><path d="M348.33,150.35c-6.92,3.94-16.14,2.18-20.61-3.92q-.27-.37-.51-.76a51.61,51.61,0,0,1-4-8.24,50.59,50.59,0,0,1-1.3-14,28.24,28.24,0,0,1,0-7,26.41,26.41,0,0,0,.72-4.47c.65-2.45.57-4.91,1.94-6.05,3.81-4.64,6.6-11.67,15.94-10.45A11.11,11.11,0,0,1,351,100.16a18,18,0,0,1,7.63,13.65,46.64,46.64,0,0,1,.27,6.19,47.23,47.23,0,0,1-7,26.89A11.19,11.19,0,0,1,348.33,150.35Zm1.37-14a29.34,29.34,0,0,0,1.3-10.52c0-2.35.46-3.66.46-6S351,115.32,351,113c-1.3-2.35-1.3-4.67-2.67-7s-2.48-5.61-5.11-6.72c-2.52,0-2.71-.24-5.38-.24a18.24,18.24,0,0,0-5.49,8,13,13,0,0,0-1.37,7,79.18,79.18,0,0,0,1.37,25.65c1.3,2.35,1.3,4.67,2.67,5.88,1.3,0,.57,1,1.49,1.82a8.36,8.36,0,0,0,9.53-1.41,75,75,0,0,0,3.62-9.58Z" transform="translate(-12.48 -11.36)" fill="#b20000"/><path d="M376.28,100.46c0,15.43-2.71,29.65-1.41,46.29,0,1.14,0,1.08,1.41,1.14s1.3,0,2.59,0H383V136.06a2.18,2.18,0,0,1,2.71,0c2.59,2.35,1.3,7.16,1.3,10.69,0,1.14,1.3,3.36,0,4.74-8.08,1.14-16.13,0-22.88,1.14-1.41-1.14-2.71-1.14-2.71-2.39s1.3-1.14,2.71-1.14c1.3-1.21,1.3-2.35,1.3-4.74a100.48,100.48,0,0,0,1.37-20.17V112.36a35.78,35.78,0,0,0-1.37-11.93c0-1.14-1.3-1.14-2.71-2.29V95.75h1.41a134.35,134.35,0,0,1,13.69-.47c1.3,0,1,.24,1,1.61C377.58,99.32,376.28,99.32,376.28,100.46Z" transform="translate(-12.48 -11.36)" fill="#b20000"/><path d="M416.85,150.35c-6.92,3.94-16.14,2.18-20.61-3.92q-.27-.37-.51-.76a51.65,51.65,0,0,1-4-8.24,50.59,50.59,0,0,1-1.3-14,28.24,28.24,0,0,1,0-7,26.41,26.41,0,0,0,.72-4.47c.65-2.45.57-4.91,1.94-6.05,3.81-4.64,6.6-11.67,15.94-10.45a11.11,11.11,0,0,1,10.48,4.67,18,18,0,0,1,7.63,13.65,46.7,46.7,0,0,1,.27,6.19,47.23,47.23,0,0,1-7,26.89A11.23,11.23,0,0,1,416.85,150.35Zm1.37-14a29.34,29.34,0,0,0,1.3-10.52c0-2.35.46-3.66.46-6s-.46-4.57-.46-6.93c-1.3-2.35-1.3-4.67-2.67-7s-2.48-5.61-5.11-6.72c-2.52,0-2.71-.24-5.38-.24a18.18,18.18,0,0,0-5.38,8,13,13,0,0,0-1.37,7A79.15,79.15,0,0,0,401,139.66c1.3,2.35,1.3,4.67,2.67,5.88,1.3,0,.57,1,1.49,1.82a8.36,8.36,0,0,0,9.53-1.41,74.76,74.76,0,0,0,3.51-9.58Z" transform="translate(-12.48 -11.36)" fill="#b20000"/><path d="M32.49,198.85c-.42,11-1.26,22.83-1.26,34.85,1.26,1.11,2.52,1.11,3.66,2.12,0,1.11-1.14,1.11-2.4,2.22-2.52-1.11-7.45,0-11.11-1.11a1.31,1.31,0,0,1-.11-2l.11-.1c0-1.11,1.26,0,2.4-1.11s0-3.23,0-4.34c0-3.34.18-6.25.18-9.48a25.07,25.07,0,0,1-.18-2.65V189.05c-1.14,0-2.4,0-2.4-1.11v-2.17c0-1.06,1.26,0,3.66,0s7.45-1.06,9.85,0c1.26,1.11,0,3.28-2.4,3.28C31.23,192.36,32.61,195.57,32.49,198.85Z" transform="translate(-12.48 -11.36)" fill="#231f20"/><path d="M72.92,187.94H70.49c-1.2,1.06,0,2.12,0,4.29,0,13.77-.24,28.6,1,43.43,0,3.28-4.33,2.65-5.53,1.54-2.34-6.36-6.49-16.58-8.71-23.68a45.57,45.57,0,0,0-2.82-6.3c-.48-1-.78-1.7-.78-1.7-1.14-2.17-.36-4.66-2.76-5.72V232.7a4.73,4.73,0,0,0,3.54,1.06c0,2.17,1,4.24-1.32,4.24h-2.7l-8.05.16c-1.2,0-.66-2-.66-4.13,0,0,2,.74,2-.32a16.41,16.41,0,0,0,.42-7.42c0-3.13-.42-7.42-.42-9.53v-7.47c0-2.38-.48-4.08-.48-6.25,0-1.06-.66-2.22-.66-3.28v-6.94c0-1.43-1.08-2.65-1.08-3.65-2.46,0-3.66-1.06-3.66-2.12a2,2,0,0,1,2.1-2h0a14.76,14.76,0,0,0,2.76-.21c1.2,0,2.22.21,3.9.21s2.1,2,2.1,2c4.81,6.36,7.27,13.83,10.81,21.19a41.64,41.64,0,0,0,3.66,7.42,7.24,7.24,0,0,0,1,3.28,36,36,0,0,0,2.82,6.57c.6.74-.3-5.56-.3-7.68,0-5.3.48-11.87.48-18.22v-1.06c0-3.23-1.2-5.3-1.2-8.53-1.2-1.06-2.46-2.12-3.66-2.12-1.2-1.06-2.4-1.06-1.2-3.23,1.2,0,.42.32,2.16.32a9,9,0,0,0,2.7-.32c2.64.64,7.21-1.06,8.41,1.11A3.63,3.63,0,0,1,72.92,187.94Z" transform="translate(-12.48 -11.36)" fill="#231f20"/><path d="M82,234.74c1.32,0,1.32-1.06,2.58-1.06V221.23c0-5.61-1.26-10.12-1.26-13.51A36,36,0,0,0,82,195.38v-4.56c-2.46,0-5,2.28-5-1.17,0-1.06,1.26-1.06,2.58-2.17l1.26-1.17a18.35,18.35,0,0,1,7.69-1.11,33.39,33.39,0,0,1,6.49,0,1.69,1.69,0,0,1,1.14,0c1.32,1.11,3.78,2.28,5.11,3.39a11,11,0,0,1,5.11,5.61,27.75,27.75,0,0,1,3.78,10.22,27.33,27.33,0,0,1,0,12.29c0,6.78-5,12.39-9,17C98.51,234.74,96,237,90.82,237H88.51a25.06,25.06,0,0,1-9,1.11c-1.32-1.11-2.58-2.28-2.58-3.39Zm8.17-40.52c0,3.34.3,5.61.3,7.95s.48,4.5.48,7.95v11.23c0,2.28,1.32,4.56,1.32,6.73s-1.32,3.44,0,4.56c1.26,0,2.58-1.11,3.84-1.11a1.21,1.21,0,0,1,1.26-1.17h.06a1.16,1.16,0,0,0,1.2-1.11h0c2.58-3.34,2.58-7.95,2.58-12.39,0-2.28,1.26-5.61,0-9v-3.39c-1.32-5.61-1.32-11.23-5.11-14.67-1.26-1.06-2.58-1.06-5.17-1.06-1.2,1-.78,3.95-.78,5.48Z" transform="translate(-12.48 -11.36)" fill="#231f20"/><path d="M144.35,234.34c1.32,0,2.52,0,2.52,1.11,0,3.39-5.29,2.65-9,2.22-2.64-2.22,1-4-.3-10.86-.78-4.29.48-9.11-2.52-13a16.83,16.83,0,0,0-2.52-3c0-1.17-1.32-1.17-2.58-2.22-1.32,0-2.52,0-2.52,1.06-1.32,5.72,0,12.55,0,17.06a14,14,0,0,0,1.2,6.89c0,1.11,2.58,1.11,2.58,2.17s.18,2-1.08,2c-2.52,0-8-.85-10.45.32-2.64,0-3.84,0-5.17-2.33a5.39,5.39,0,0,1,4.06-1V215.4c0-2.22,1.32-4.56,0-6.78,0-1.17.3-1.38.42-3,.36-4.82-.42-8.37-.42-14.09-2.52,0-4.69-.48-4.69-1.64,0-3.34,1.68-3.39,5.59-3.39,1.26,0,1.68-.64,3-.64,7.81-1.17,18.86-.9,20.67,5.67a13.68,13.68,0,0,1,0,9.06,17.36,17.36,0,0,1-3.78,4.56L138,206.35c0,1.11,1.32,1.11,1.32,2.28C144.17,214.32,143,226.34,144.35,234.34Zm-17.6-31c0,1.54,5.83-.42,7.15-1.59a37.37,37.37,0,0,1,1.2-4.5,14.43,14.43,0,0,0,0-4.56c0-1.59-1.2-2.33-2.52-3.44h-6.31c0,4.66.18,8.58.48,14.09Z" transform="translate(-12.48 -11.36)" fill="#231f20"/><path d="M171.39,213.55c-2.4,0-6.25-1.11-10-1.11-1.32,1.11-1.32,3.34-1.32,5.72a55.06,55.06,0,0,0-1.38,15.63c1.38,1,2.7,0,3.84,1a14.79,14.79,0,0,1-.18,2.22c-3.84,2.33-7.45,0-11.11,1.17L148.62,236a6.55,6.55,0,0,1,3.78-2.17c1.32,0,1.32-1.11,1.32-2.28,1.2-6.78,2.46-16.74,3.72-24.63a17.91,17.91,0,0,1,2.64-8.9,33.56,33.56,0,0,1,6.25-11.18s2.64-2.38,5-1.17a10.91,10.91,0,0,1,5.29,7.95,16.25,16.25,0,0,1,1.92,6c1.2,8.79,1.8,18.7,3,28.66v6.52c0,1,2.64,2.22,0,3.34l-1.56-.32c-2.52,0-4.69.32-7.27.32-1.32,0-3.36.58-3.36-.42s2-4.08,3.36-4.08A97.8,97.8,0,0,0,171.39,213.55Zm-8.83-10c0,1-1.14,4.4-1.14,5.67a38.28,38.28,0,0,0,10,1v-6.67a34.29,34.29,0,0,0-2.4-11.23,1.19,1.19,0,0,0-1.26-1.11h-.06l-1.32,1.11c-1.2,3.26-2.52,6.75-3.78,11.2Z" transform="translate(-12.48 -11.36)" fill="#231f20"/><path d="M220.29,187.94h-2.46c-1.2,1.06,0,2.12,0,4.29,0,13.77-.24,28.6,1,43.43,0,3.28-4.33,2.65-5.53,1.54-2.34-6.36-6.49-16.58-8.71-23.68a45.59,45.59,0,0,0-2.82-6.3c-.48-1-.78-1.7-.78-1.7-1.14-2.17-.36-4.66-2.76-5.72V232.7a4.73,4.73,0,0,0,3.54,1.06c0,2.17,1,4.24-1.32,4.24h-2.7l-8.05.16c-1.2,0-.66-2-.66-4.13,0,0,2,.74,2-.32a16.41,16.41,0,0,0,.42-7.42c0-3.13-.42-7.42-.42-9.53v-7.47c0-2.38-.48-4.08-.48-6.25,0-1.06-.66-2.22-.66-3.28v-6.94c0-1.43-1.08-2.65-1.08-3.65-2.46,0-3.66-1.06-3.66-2.12a2,2,0,0,1,2.1-2h0a14.76,14.76,0,0,0,2.76-.21c1.2,0,2.22.21,3.9.21s2.1,2,2.1,2c4.81,6.36,7.27,13.83,10.81,21.19a41.69,41.69,0,0,0,3.66,7.42,7.24,7.24,0,0,0,1,3.28,35.86,35.86,0,0,0,2.82,6.57c.6.74-.3-5.56-.3-7.68,0-5.3.48-11.87.48-18.22v-1.06c0-3.23-1.2-5.3-1.2-8.53-1.2-1.06-2.46-2.12-3.66-2.12-1.2-1.06-2.4-1.06-1.2-3.23,1.2,0,.42.32,2.16.32a9,9,0,0,0,2.7-.32c2.64.64,7.21-1.06,8.41,1.11A3.62,3.62,0,0,1,220.29,187.94Z" transform="translate(-12.48 -11.36)" fill="#231f20"/><path d="M235.7,198.85c-.42,11-1.26,22.83-1.26,34.85,1.26,1.11,2.52,1.11,3.66,2.12,0,1.11-1.14,1.11-2.4,2.22-2.52-1.11-7.45,0-11.11-1.11a1.31,1.31,0,0,1-.11-2l.11-.1c0-1.11,1.26,0,2.4-1.11s0-3.23,0-4.34c0-3.34.18-6.25.18-9.48a25.07,25.07,0,0,1-.18-2.65V189.05c-1.14,0-2.4,0-2.4-1.11v-2.17c0-1.06,1.26,0,3.66,0s7.45-1.06,9.85,0c1.26,1.11,0,3.28-2.4,3.28C234.28,192.36,235.7,195.57,235.7,198.85Z" transform="translate(-12.48 -11.36)" fill="#231f20"/></svg>
